%TF.GenerationSoftware,KiCad,Pcbnew,9.0.2*%
%TF.CreationDate,2025-06-03T16:25:14-04:00*%
%TF.ProjectId,HackpadAllan,4861636b-7061-4644-916c-6c616e2e6b69,rev?*%
%TF.SameCoordinates,Original*%
%TF.FileFunction,Legend,Top*%
%TF.FilePolarity,Positive*%
%FSLAX46Y46*%
G04 Gerber Fmt 4.6, Leading zero omitted, Abs format (unit mm)*
G04 Created by KiCad (PCBNEW 9.0.2) date 2025-06-03 16:25:14*
%MOMM*%
%LPD*%
G01*
G04 APERTURE LIST*
%ADD10C,0.150000*%
%ADD11C,0.120000*%
G04 APERTURE END LIST*
D10*
X165099160Y-63654104D02*
X165575350Y-63654104D01*
X165003922Y-63939819D02*
X165337255Y-62939819D01*
X165337255Y-62939819D02*
X165670588Y-63939819D01*
X166146779Y-63939819D02*
X166051541Y-63892200D01*
X166051541Y-63892200D02*
X166003922Y-63796961D01*
X166003922Y-63796961D02*
X166003922Y-62939819D01*
X166670589Y-63939819D02*
X166575351Y-63892200D01*
X166575351Y-63892200D02*
X166527732Y-63796961D01*
X166527732Y-63796961D02*
X166527732Y-62939819D01*
X167480113Y-63939819D02*
X167480113Y-63416009D01*
X167480113Y-63416009D02*
X167432494Y-63320771D01*
X167432494Y-63320771D02*
X167337256Y-63273152D01*
X167337256Y-63273152D02*
X167146780Y-63273152D01*
X167146780Y-63273152D02*
X167051542Y-63320771D01*
X167480113Y-63892200D02*
X167384875Y-63939819D01*
X167384875Y-63939819D02*
X167146780Y-63939819D01*
X167146780Y-63939819D02*
X167051542Y-63892200D01*
X167051542Y-63892200D02*
X167003923Y-63796961D01*
X167003923Y-63796961D02*
X167003923Y-63701723D01*
X167003923Y-63701723D02*
X167051542Y-63606485D01*
X167051542Y-63606485D02*
X167146780Y-63558866D01*
X167146780Y-63558866D02*
X167384875Y-63558866D01*
X167384875Y-63558866D02*
X167480113Y-63511247D01*
X167956304Y-63273152D02*
X167956304Y-63939819D01*
X167956304Y-63368390D02*
X168003923Y-63320771D01*
X168003923Y-63320771D02*
X168099161Y-63273152D01*
X168099161Y-63273152D02*
X168242018Y-63273152D01*
X168242018Y-63273152D02*
X168337256Y-63320771D01*
X168337256Y-63320771D02*
X168384875Y-63416009D01*
X168384875Y-63416009D02*
X168384875Y-63939819D01*
X168908685Y-62939819D02*
X168813447Y-63130295D01*
X169289637Y-63892200D02*
X169384875Y-63939819D01*
X169384875Y-63939819D02*
X169575351Y-63939819D01*
X169575351Y-63939819D02*
X169670589Y-63892200D01*
X169670589Y-63892200D02*
X169718208Y-63796961D01*
X169718208Y-63796961D02*
X169718208Y-63749342D01*
X169718208Y-63749342D02*
X169670589Y-63654104D01*
X169670589Y-63654104D02*
X169575351Y-63606485D01*
X169575351Y-63606485D02*
X169432494Y-63606485D01*
X169432494Y-63606485D02*
X169337256Y-63558866D01*
X169337256Y-63558866D02*
X169289637Y-63463628D01*
X169289637Y-63463628D02*
X169289637Y-63416009D01*
X169289637Y-63416009D02*
X169337256Y-63320771D01*
X169337256Y-63320771D02*
X169432494Y-63273152D01*
X169432494Y-63273152D02*
X169575351Y-63273152D01*
X169575351Y-63273152D02*
X169670589Y-63320771D01*
X170861066Y-63654104D02*
X171337256Y-63654104D01*
X170765828Y-63939819D02*
X171099161Y-62939819D01*
X171099161Y-62939819D02*
X171432494Y-63939819D01*
X171908685Y-63939819D02*
X171813447Y-63892200D01*
X171813447Y-63892200D02*
X171765828Y-63796961D01*
X171765828Y-63796961D02*
X171765828Y-62939819D01*
X172432495Y-63939819D02*
X172337257Y-63892200D01*
X172337257Y-63892200D02*
X172289638Y-63796961D01*
X172289638Y-63796961D02*
X172289638Y-62939819D01*
X173242019Y-63939819D02*
X173242019Y-63416009D01*
X173242019Y-63416009D02*
X173194400Y-63320771D01*
X173194400Y-63320771D02*
X173099162Y-63273152D01*
X173099162Y-63273152D02*
X172908686Y-63273152D01*
X172908686Y-63273152D02*
X172813448Y-63320771D01*
X173242019Y-63892200D02*
X173146781Y-63939819D01*
X173146781Y-63939819D02*
X172908686Y-63939819D01*
X172908686Y-63939819D02*
X172813448Y-63892200D01*
X172813448Y-63892200D02*
X172765829Y-63796961D01*
X172765829Y-63796961D02*
X172765829Y-63701723D01*
X172765829Y-63701723D02*
X172813448Y-63606485D01*
X172813448Y-63606485D02*
X172908686Y-63558866D01*
X172908686Y-63558866D02*
X173146781Y-63558866D01*
X173146781Y-63558866D02*
X173242019Y-63511247D01*
X173718210Y-63273152D02*
X173718210Y-63939819D01*
X173718210Y-63368390D02*
X173765829Y-63320771D01*
X173765829Y-63320771D02*
X173861067Y-63273152D01*
X173861067Y-63273152D02*
X174003924Y-63273152D01*
X174003924Y-63273152D02*
X174099162Y-63320771D01*
X174099162Y-63320771D02*
X174146781Y-63416009D01*
X174146781Y-63416009D02*
X174146781Y-63939819D01*
X175718210Y-63416009D02*
X175861067Y-63463628D01*
X175861067Y-63463628D02*
X175908686Y-63511247D01*
X175908686Y-63511247D02*
X175956305Y-63606485D01*
X175956305Y-63606485D02*
X175956305Y-63749342D01*
X175956305Y-63749342D02*
X175908686Y-63844580D01*
X175908686Y-63844580D02*
X175861067Y-63892200D01*
X175861067Y-63892200D02*
X175765829Y-63939819D01*
X175765829Y-63939819D02*
X175384877Y-63939819D01*
X175384877Y-63939819D02*
X175384877Y-62939819D01*
X175384877Y-62939819D02*
X175718210Y-62939819D01*
X175718210Y-62939819D02*
X175813448Y-62987438D01*
X175813448Y-62987438D02*
X175861067Y-63035057D01*
X175861067Y-63035057D02*
X175908686Y-63130295D01*
X175908686Y-63130295D02*
X175908686Y-63225533D01*
X175908686Y-63225533D02*
X175861067Y-63320771D01*
X175861067Y-63320771D02*
X175813448Y-63368390D01*
X175813448Y-63368390D02*
X175718210Y-63416009D01*
X175718210Y-63416009D02*
X175384877Y-63416009D01*
X176527734Y-63939819D02*
X176432496Y-63892200D01*
X176432496Y-63892200D02*
X176384877Y-63844580D01*
X176384877Y-63844580D02*
X176337258Y-63749342D01*
X176337258Y-63749342D02*
X176337258Y-63463628D01*
X176337258Y-63463628D02*
X176384877Y-63368390D01*
X176384877Y-63368390D02*
X176432496Y-63320771D01*
X176432496Y-63320771D02*
X176527734Y-63273152D01*
X176527734Y-63273152D02*
X176670591Y-63273152D01*
X176670591Y-63273152D02*
X176765829Y-63320771D01*
X176765829Y-63320771D02*
X176813448Y-63368390D01*
X176813448Y-63368390D02*
X176861067Y-63463628D01*
X176861067Y-63463628D02*
X176861067Y-63749342D01*
X176861067Y-63749342D02*
X176813448Y-63844580D01*
X176813448Y-63844580D02*
X176765829Y-63892200D01*
X176765829Y-63892200D02*
X176670591Y-63939819D01*
X176670591Y-63939819D02*
X176527734Y-63939819D01*
X177718210Y-63939819D02*
X177718210Y-63416009D01*
X177718210Y-63416009D02*
X177670591Y-63320771D01*
X177670591Y-63320771D02*
X177575353Y-63273152D01*
X177575353Y-63273152D02*
X177384877Y-63273152D01*
X177384877Y-63273152D02*
X177289639Y-63320771D01*
X177718210Y-63892200D02*
X177622972Y-63939819D01*
X177622972Y-63939819D02*
X177384877Y-63939819D01*
X177384877Y-63939819D02*
X177289639Y-63892200D01*
X177289639Y-63892200D02*
X177242020Y-63796961D01*
X177242020Y-63796961D02*
X177242020Y-63701723D01*
X177242020Y-63701723D02*
X177289639Y-63606485D01*
X177289639Y-63606485D02*
X177384877Y-63558866D01*
X177384877Y-63558866D02*
X177622972Y-63558866D01*
X177622972Y-63558866D02*
X177718210Y-63511247D01*
X178194401Y-63939819D02*
X178194401Y-63273152D01*
X178194401Y-63463628D02*
X178242020Y-63368390D01*
X178242020Y-63368390D02*
X178289639Y-63320771D01*
X178289639Y-63320771D02*
X178384877Y-63273152D01*
X178384877Y-63273152D02*
X178480115Y-63273152D01*
X179242020Y-63939819D02*
X179242020Y-62939819D01*
X179242020Y-63892200D02*
X179146782Y-63939819D01*
X179146782Y-63939819D02*
X178956306Y-63939819D01*
X178956306Y-63939819D02*
X178861068Y-63892200D01*
X178861068Y-63892200D02*
X178813449Y-63844580D01*
X178813449Y-63844580D02*
X178765830Y-63749342D01*
X178765830Y-63749342D02*
X178765830Y-63463628D01*
X178765830Y-63463628D02*
X178813449Y-63368390D01*
X178813449Y-63368390D02*
X178861068Y-63320771D01*
X178861068Y-63320771D02*
X178956306Y-63273152D01*
X178956306Y-63273152D02*
X179146782Y-63273152D01*
X179146782Y-63273152D02*
X179242020Y-63320771D01*
X129616667Y-99583200D02*
X129759524Y-99630819D01*
X129759524Y-99630819D02*
X129997619Y-99630819D01*
X129997619Y-99630819D02*
X130092857Y-99583200D01*
X130092857Y-99583200D02*
X130140476Y-99535580D01*
X130140476Y-99535580D02*
X130188095Y-99440342D01*
X130188095Y-99440342D02*
X130188095Y-99345104D01*
X130188095Y-99345104D02*
X130140476Y-99249866D01*
X130140476Y-99249866D02*
X130092857Y-99202247D01*
X130092857Y-99202247D02*
X129997619Y-99154628D01*
X129997619Y-99154628D02*
X129807143Y-99107009D01*
X129807143Y-99107009D02*
X129711905Y-99059390D01*
X129711905Y-99059390D02*
X129664286Y-99011771D01*
X129664286Y-99011771D02*
X129616667Y-98916533D01*
X129616667Y-98916533D02*
X129616667Y-98821295D01*
X129616667Y-98821295D02*
X129664286Y-98726057D01*
X129664286Y-98726057D02*
X129711905Y-98678438D01*
X129711905Y-98678438D02*
X129807143Y-98630819D01*
X129807143Y-98630819D02*
X130045238Y-98630819D01*
X130045238Y-98630819D02*
X130188095Y-98678438D01*
X130521429Y-98630819D02*
X130759524Y-99630819D01*
X130759524Y-99630819D02*
X130950000Y-98916533D01*
X130950000Y-98916533D02*
X131140476Y-99630819D01*
X131140476Y-99630819D02*
X131378572Y-98630819D01*
X132188095Y-98964152D02*
X132188095Y-99630819D01*
X131950000Y-98583200D02*
X131711905Y-99297485D01*
X131711905Y-99297485D02*
X132330952Y-99297485D01*
X148666667Y-99583200D02*
X148809524Y-99630819D01*
X148809524Y-99630819D02*
X149047619Y-99630819D01*
X149047619Y-99630819D02*
X149142857Y-99583200D01*
X149142857Y-99583200D02*
X149190476Y-99535580D01*
X149190476Y-99535580D02*
X149238095Y-99440342D01*
X149238095Y-99440342D02*
X149238095Y-99345104D01*
X149238095Y-99345104D02*
X149190476Y-99249866D01*
X149190476Y-99249866D02*
X149142857Y-99202247D01*
X149142857Y-99202247D02*
X149047619Y-99154628D01*
X149047619Y-99154628D02*
X148857143Y-99107009D01*
X148857143Y-99107009D02*
X148761905Y-99059390D01*
X148761905Y-99059390D02*
X148714286Y-99011771D01*
X148714286Y-99011771D02*
X148666667Y-98916533D01*
X148666667Y-98916533D02*
X148666667Y-98821295D01*
X148666667Y-98821295D02*
X148714286Y-98726057D01*
X148714286Y-98726057D02*
X148761905Y-98678438D01*
X148761905Y-98678438D02*
X148857143Y-98630819D01*
X148857143Y-98630819D02*
X149095238Y-98630819D01*
X149095238Y-98630819D02*
X149238095Y-98678438D01*
X149571429Y-98630819D02*
X149809524Y-99630819D01*
X149809524Y-99630819D02*
X150000000Y-98916533D01*
X150000000Y-98916533D02*
X150190476Y-99630819D01*
X150190476Y-99630819D02*
X150428572Y-98630819D01*
X151285714Y-98630819D02*
X150809524Y-98630819D01*
X150809524Y-98630819D02*
X150761905Y-99107009D01*
X150761905Y-99107009D02*
X150809524Y-99059390D01*
X150809524Y-99059390D02*
X150904762Y-99011771D01*
X150904762Y-99011771D02*
X151142857Y-99011771D01*
X151142857Y-99011771D02*
X151238095Y-99059390D01*
X151238095Y-99059390D02*
X151285714Y-99107009D01*
X151285714Y-99107009D02*
X151333333Y-99202247D01*
X151333333Y-99202247D02*
X151333333Y-99440342D01*
X151333333Y-99440342D02*
X151285714Y-99535580D01*
X151285714Y-99535580D02*
X151238095Y-99583200D01*
X151238095Y-99583200D02*
X151142857Y-99630819D01*
X151142857Y-99630819D02*
X150904762Y-99630819D01*
X150904762Y-99630819D02*
X150809524Y-99583200D01*
X150809524Y-99583200D02*
X150761905Y-99535580D01*
X148666667Y-118633200D02*
X148809524Y-118680819D01*
X148809524Y-118680819D02*
X149047619Y-118680819D01*
X149047619Y-118680819D02*
X149142857Y-118633200D01*
X149142857Y-118633200D02*
X149190476Y-118585580D01*
X149190476Y-118585580D02*
X149238095Y-118490342D01*
X149238095Y-118490342D02*
X149238095Y-118395104D01*
X149238095Y-118395104D02*
X149190476Y-118299866D01*
X149190476Y-118299866D02*
X149142857Y-118252247D01*
X149142857Y-118252247D02*
X149047619Y-118204628D01*
X149047619Y-118204628D02*
X148857143Y-118157009D01*
X148857143Y-118157009D02*
X148761905Y-118109390D01*
X148761905Y-118109390D02*
X148714286Y-118061771D01*
X148714286Y-118061771D02*
X148666667Y-117966533D01*
X148666667Y-117966533D02*
X148666667Y-117871295D01*
X148666667Y-117871295D02*
X148714286Y-117776057D01*
X148714286Y-117776057D02*
X148761905Y-117728438D01*
X148761905Y-117728438D02*
X148857143Y-117680819D01*
X148857143Y-117680819D02*
X149095238Y-117680819D01*
X149095238Y-117680819D02*
X149238095Y-117728438D01*
X149571429Y-117680819D02*
X149809524Y-118680819D01*
X149809524Y-118680819D02*
X150000000Y-117966533D01*
X150000000Y-117966533D02*
X150190476Y-118680819D01*
X150190476Y-118680819D02*
X150428572Y-117680819D01*
X150952381Y-118109390D02*
X150857143Y-118061771D01*
X150857143Y-118061771D02*
X150809524Y-118014152D01*
X150809524Y-118014152D02*
X150761905Y-117918914D01*
X150761905Y-117918914D02*
X150761905Y-117871295D01*
X150761905Y-117871295D02*
X150809524Y-117776057D01*
X150809524Y-117776057D02*
X150857143Y-117728438D01*
X150857143Y-117728438D02*
X150952381Y-117680819D01*
X150952381Y-117680819D02*
X151142857Y-117680819D01*
X151142857Y-117680819D02*
X151238095Y-117728438D01*
X151238095Y-117728438D02*
X151285714Y-117776057D01*
X151285714Y-117776057D02*
X151333333Y-117871295D01*
X151333333Y-117871295D02*
X151333333Y-117918914D01*
X151333333Y-117918914D02*
X151285714Y-118014152D01*
X151285714Y-118014152D02*
X151238095Y-118061771D01*
X151238095Y-118061771D02*
X151142857Y-118109390D01*
X151142857Y-118109390D02*
X150952381Y-118109390D01*
X150952381Y-118109390D02*
X150857143Y-118157009D01*
X150857143Y-118157009D02*
X150809524Y-118204628D01*
X150809524Y-118204628D02*
X150761905Y-118299866D01*
X150761905Y-118299866D02*
X150761905Y-118490342D01*
X150761905Y-118490342D02*
X150809524Y-118585580D01*
X150809524Y-118585580D02*
X150857143Y-118633200D01*
X150857143Y-118633200D02*
X150952381Y-118680819D01*
X150952381Y-118680819D02*
X151142857Y-118680819D01*
X151142857Y-118680819D02*
X151238095Y-118633200D01*
X151238095Y-118633200D02*
X151285714Y-118585580D01*
X151285714Y-118585580D02*
X151333333Y-118490342D01*
X151333333Y-118490342D02*
X151333333Y-118299866D01*
X151333333Y-118299866D02*
X151285714Y-118204628D01*
X151285714Y-118204628D02*
X151238095Y-118157009D01*
X151238095Y-118157009D02*
X151142857Y-118109390D01*
X167716667Y-80533200D02*
X167859524Y-80580819D01*
X167859524Y-80580819D02*
X168097619Y-80580819D01*
X168097619Y-80580819D02*
X168192857Y-80533200D01*
X168192857Y-80533200D02*
X168240476Y-80485580D01*
X168240476Y-80485580D02*
X168288095Y-80390342D01*
X168288095Y-80390342D02*
X168288095Y-80295104D01*
X168288095Y-80295104D02*
X168240476Y-80199866D01*
X168240476Y-80199866D02*
X168192857Y-80152247D01*
X168192857Y-80152247D02*
X168097619Y-80104628D01*
X168097619Y-80104628D02*
X167907143Y-80057009D01*
X167907143Y-80057009D02*
X167811905Y-80009390D01*
X167811905Y-80009390D02*
X167764286Y-79961771D01*
X167764286Y-79961771D02*
X167716667Y-79866533D01*
X167716667Y-79866533D02*
X167716667Y-79771295D01*
X167716667Y-79771295D02*
X167764286Y-79676057D01*
X167764286Y-79676057D02*
X167811905Y-79628438D01*
X167811905Y-79628438D02*
X167907143Y-79580819D01*
X167907143Y-79580819D02*
X168145238Y-79580819D01*
X168145238Y-79580819D02*
X168288095Y-79628438D01*
X168621429Y-79580819D02*
X168859524Y-80580819D01*
X168859524Y-80580819D02*
X169050000Y-79866533D01*
X169050000Y-79866533D02*
X169240476Y-80580819D01*
X169240476Y-80580819D02*
X169478572Y-79580819D01*
X169764286Y-79580819D02*
X170383333Y-79580819D01*
X170383333Y-79580819D02*
X170050000Y-79961771D01*
X170050000Y-79961771D02*
X170192857Y-79961771D01*
X170192857Y-79961771D02*
X170288095Y-80009390D01*
X170288095Y-80009390D02*
X170335714Y-80057009D01*
X170335714Y-80057009D02*
X170383333Y-80152247D01*
X170383333Y-80152247D02*
X170383333Y-80390342D01*
X170383333Y-80390342D02*
X170335714Y-80485580D01*
X170335714Y-80485580D02*
X170288095Y-80533200D01*
X170288095Y-80533200D02*
X170192857Y-80580819D01*
X170192857Y-80580819D02*
X169907143Y-80580819D01*
X169907143Y-80580819D02*
X169811905Y-80533200D01*
X169811905Y-80533200D02*
X169764286Y-80485580D01*
X148666667Y-80533200D02*
X148809524Y-80580819D01*
X148809524Y-80580819D02*
X149047619Y-80580819D01*
X149047619Y-80580819D02*
X149142857Y-80533200D01*
X149142857Y-80533200D02*
X149190476Y-80485580D01*
X149190476Y-80485580D02*
X149238095Y-80390342D01*
X149238095Y-80390342D02*
X149238095Y-80295104D01*
X149238095Y-80295104D02*
X149190476Y-80199866D01*
X149190476Y-80199866D02*
X149142857Y-80152247D01*
X149142857Y-80152247D02*
X149047619Y-80104628D01*
X149047619Y-80104628D02*
X148857143Y-80057009D01*
X148857143Y-80057009D02*
X148761905Y-80009390D01*
X148761905Y-80009390D02*
X148714286Y-79961771D01*
X148714286Y-79961771D02*
X148666667Y-79866533D01*
X148666667Y-79866533D02*
X148666667Y-79771295D01*
X148666667Y-79771295D02*
X148714286Y-79676057D01*
X148714286Y-79676057D02*
X148761905Y-79628438D01*
X148761905Y-79628438D02*
X148857143Y-79580819D01*
X148857143Y-79580819D02*
X149095238Y-79580819D01*
X149095238Y-79580819D02*
X149238095Y-79628438D01*
X149571429Y-79580819D02*
X149809524Y-80580819D01*
X149809524Y-80580819D02*
X150000000Y-79866533D01*
X150000000Y-79866533D02*
X150190476Y-80580819D01*
X150190476Y-80580819D02*
X150428572Y-79580819D01*
X150761905Y-79676057D02*
X150809524Y-79628438D01*
X150809524Y-79628438D02*
X150904762Y-79580819D01*
X150904762Y-79580819D02*
X151142857Y-79580819D01*
X151142857Y-79580819D02*
X151238095Y-79628438D01*
X151238095Y-79628438D02*
X151285714Y-79676057D01*
X151285714Y-79676057D02*
X151333333Y-79771295D01*
X151333333Y-79771295D02*
X151333333Y-79866533D01*
X151333333Y-79866533D02*
X151285714Y-80009390D01*
X151285714Y-80009390D02*
X150714286Y-80580819D01*
X150714286Y-80580819D02*
X151333333Y-80580819D01*
X167716667Y-99583200D02*
X167859524Y-99630819D01*
X167859524Y-99630819D02*
X168097619Y-99630819D01*
X168097619Y-99630819D02*
X168192857Y-99583200D01*
X168192857Y-99583200D02*
X168240476Y-99535580D01*
X168240476Y-99535580D02*
X168288095Y-99440342D01*
X168288095Y-99440342D02*
X168288095Y-99345104D01*
X168288095Y-99345104D02*
X168240476Y-99249866D01*
X168240476Y-99249866D02*
X168192857Y-99202247D01*
X168192857Y-99202247D02*
X168097619Y-99154628D01*
X168097619Y-99154628D02*
X167907143Y-99107009D01*
X167907143Y-99107009D02*
X167811905Y-99059390D01*
X167811905Y-99059390D02*
X167764286Y-99011771D01*
X167764286Y-99011771D02*
X167716667Y-98916533D01*
X167716667Y-98916533D02*
X167716667Y-98821295D01*
X167716667Y-98821295D02*
X167764286Y-98726057D01*
X167764286Y-98726057D02*
X167811905Y-98678438D01*
X167811905Y-98678438D02*
X167907143Y-98630819D01*
X167907143Y-98630819D02*
X168145238Y-98630819D01*
X168145238Y-98630819D02*
X168288095Y-98678438D01*
X168621429Y-98630819D02*
X168859524Y-99630819D01*
X168859524Y-99630819D02*
X169050000Y-98916533D01*
X169050000Y-98916533D02*
X169240476Y-99630819D01*
X169240476Y-99630819D02*
X169478572Y-98630819D01*
X170288095Y-98630819D02*
X170097619Y-98630819D01*
X170097619Y-98630819D02*
X170002381Y-98678438D01*
X170002381Y-98678438D02*
X169954762Y-98726057D01*
X169954762Y-98726057D02*
X169859524Y-98868914D01*
X169859524Y-98868914D02*
X169811905Y-99059390D01*
X169811905Y-99059390D02*
X169811905Y-99440342D01*
X169811905Y-99440342D02*
X169859524Y-99535580D01*
X169859524Y-99535580D02*
X169907143Y-99583200D01*
X169907143Y-99583200D02*
X170002381Y-99630819D01*
X170002381Y-99630819D02*
X170192857Y-99630819D01*
X170192857Y-99630819D02*
X170288095Y-99583200D01*
X170288095Y-99583200D02*
X170335714Y-99535580D01*
X170335714Y-99535580D02*
X170383333Y-99440342D01*
X170383333Y-99440342D02*
X170383333Y-99202247D01*
X170383333Y-99202247D02*
X170335714Y-99107009D01*
X170335714Y-99107009D02*
X170288095Y-99059390D01*
X170288095Y-99059390D02*
X170192857Y-99011771D01*
X170192857Y-99011771D02*
X170002381Y-99011771D01*
X170002381Y-99011771D02*
X169907143Y-99059390D01*
X169907143Y-99059390D02*
X169859524Y-99107009D01*
X169859524Y-99107009D02*
X169811905Y-99202247D01*
X126384226Y-60057200D02*
X126527083Y-60104819D01*
X126527083Y-60104819D02*
X126765178Y-60104819D01*
X126765178Y-60104819D02*
X126860416Y-60057200D01*
X126860416Y-60057200D02*
X126908035Y-60009580D01*
X126908035Y-60009580D02*
X126955654Y-59914342D01*
X126955654Y-59914342D02*
X126955654Y-59819104D01*
X126955654Y-59819104D02*
X126908035Y-59723866D01*
X126908035Y-59723866D02*
X126860416Y-59676247D01*
X126860416Y-59676247D02*
X126765178Y-59628628D01*
X126765178Y-59628628D02*
X126574702Y-59581009D01*
X126574702Y-59581009D02*
X126479464Y-59533390D01*
X126479464Y-59533390D02*
X126431845Y-59485771D01*
X126431845Y-59485771D02*
X126384226Y-59390533D01*
X126384226Y-59390533D02*
X126384226Y-59295295D01*
X126384226Y-59295295D02*
X126431845Y-59200057D01*
X126431845Y-59200057D02*
X126479464Y-59152438D01*
X126479464Y-59152438D02*
X126574702Y-59104819D01*
X126574702Y-59104819D02*
X126812797Y-59104819D01*
X126812797Y-59104819D02*
X126955654Y-59152438D01*
X127288988Y-59104819D02*
X127527083Y-60104819D01*
X127527083Y-60104819D02*
X127717559Y-59390533D01*
X127717559Y-59390533D02*
X127908035Y-60104819D01*
X127908035Y-60104819D02*
X128146131Y-59104819D01*
X129050892Y-60104819D02*
X128479464Y-60104819D01*
X128765178Y-60104819D02*
X128765178Y-59104819D01*
X128765178Y-59104819D02*
X128669940Y-59247676D01*
X128669940Y-59247676D02*
X128574702Y-59342914D01*
X128574702Y-59342914D02*
X128479464Y-59390533D01*
X129669940Y-59104819D02*
X129765178Y-59104819D01*
X129765178Y-59104819D02*
X129860416Y-59152438D01*
X129860416Y-59152438D02*
X129908035Y-59200057D01*
X129908035Y-59200057D02*
X129955654Y-59295295D01*
X129955654Y-59295295D02*
X130003273Y-59485771D01*
X130003273Y-59485771D02*
X130003273Y-59723866D01*
X130003273Y-59723866D02*
X129955654Y-59914342D01*
X129955654Y-59914342D02*
X129908035Y-60009580D01*
X129908035Y-60009580D02*
X129860416Y-60057200D01*
X129860416Y-60057200D02*
X129765178Y-60104819D01*
X129765178Y-60104819D02*
X129669940Y-60104819D01*
X129669940Y-60104819D02*
X129574702Y-60057200D01*
X129574702Y-60057200D02*
X129527083Y-60009580D01*
X129527083Y-60009580D02*
X129479464Y-59914342D01*
X129479464Y-59914342D02*
X129431845Y-59723866D01*
X129431845Y-59723866D02*
X129431845Y-59485771D01*
X129431845Y-59485771D02*
X129479464Y-59295295D01*
X129479464Y-59295295D02*
X129527083Y-59200057D01*
X129527083Y-59200057D02*
X129574702Y-59152438D01*
X129574702Y-59152438D02*
X129669940Y-59104819D01*
X129616667Y-118633200D02*
X129759524Y-118680819D01*
X129759524Y-118680819D02*
X129997619Y-118680819D01*
X129997619Y-118680819D02*
X130092857Y-118633200D01*
X130092857Y-118633200D02*
X130140476Y-118585580D01*
X130140476Y-118585580D02*
X130188095Y-118490342D01*
X130188095Y-118490342D02*
X130188095Y-118395104D01*
X130188095Y-118395104D02*
X130140476Y-118299866D01*
X130140476Y-118299866D02*
X130092857Y-118252247D01*
X130092857Y-118252247D02*
X129997619Y-118204628D01*
X129997619Y-118204628D02*
X129807143Y-118157009D01*
X129807143Y-118157009D02*
X129711905Y-118109390D01*
X129711905Y-118109390D02*
X129664286Y-118061771D01*
X129664286Y-118061771D02*
X129616667Y-117966533D01*
X129616667Y-117966533D02*
X129616667Y-117871295D01*
X129616667Y-117871295D02*
X129664286Y-117776057D01*
X129664286Y-117776057D02*
X129711905Y-117728438D01*
X129711905Y-117728438D02*
X129807143Y-117680819D01*
X129807143Y-117680819D02*
X130045238Y-117680819D01*
X130045238Y-117680819D02*
X130188095Y-117728438D01*
X130521429Y-117680819D02*
X130759524Y-118680819D01*
X130759524Y-118680819D02*
X130950000Y-117966533D01*
X130950000Y-117966533D02*
X131140476Y-118680819D01*
X131140476Y-118680819D02*
X131378572Y-117680819D01*
X131664286Y-117680819D02*
X132330952Y-117680819D01*
X132330952Y-117680819D02*
X131902381Y-118680819D01*
X129616667Y-80533200D02*
X129759524Y-80580819D01*
X129759524Y-80580819D02*
X129997619Y-80580819D01*
X129997619Y-80580819D02*
X130092857Y-80533200D01*
X130092857Y-80533200D02*
X130140476Y-80485580D01*
X130140476Y-80485580D02*
X130188095Y-80390342D01*
X130188095Y-80390342D02*
X130188095Y-80295104D01*
X130188095Y-80295104D02*
X130140476Y-80199866D01*
X130140476Y-80199866D02*
X130092857Y-80152247D01*
X130092857Y-80152247D02*
X129997619Y-80104628D01*
X129997619Y-80104628D02*
X129807143Y-80057009D01*
X129807143Y-80057009D02*
X129711905Y-80009390D01*
X129711905Y-80009390D02*
X129664286Y-79961771D01*
X129664286Y-79961771D02*
X129616667Y-79866533D01*
X129616667Y-79866533D02*
X129616667Y-79771295D01*
X129616667Y-79771295D02*
X129664286Y-79676057D01*
X129664286Y-79676057D02*
X129711905Y-79628438D01*
X129711905Y-79628438D02*
X129807143Y-79580819D01*
X129807143Y-79580819D02*
X130045238Y-79580819D01*
X130045238Y-79580819D02*
X130188095Y-79628438D01*
X130521429Y-79580819D02*
X130759524Y-80580819D01*
X130759524Y-80580819D02*
X130950000Y-79866533D01*
X130950000Y-79866533D02*
X131140476Y-80580819D01*
X131140476Y-80580819D02*
X131378572Y-79580819D01*
X132283333Y-80580819D02*
X131711905Y-80580819D01*
X131997619Y-80580819D02*
X131997619Y-79580819D01*
X131997619Y-79580819D02*
X131902381Y-79723676D01*
X131902381Y-79723676D02*
X131807143Y-79818914D01*
X131807143Y-79818914D02*
X131711905Y-79866533D01*
X167716667Y-118633200D02*
X167859524Y-118680819D01*
X167859524Y-118680819D02*
X168097619Y-118680819D01*
X168097619Y-118680819D02*
X168192857Y-118633200D01*
X168192857Y-118633200D02*
X168240476Y-118585580D01*
X168240476Y-118585580D02*
X168288095Y-118490342D01*
X168288095Y-118490342D02*
X168288095Y-118395104D01*
X168288095Y-118395104D02*
X168240476Y-118299866D01*
X168240476Y-118299866D02*
X168192857Y-118252247D01*
X168192857Y-118252247D02*
X168097619Y-118204628D01*
X168097619Y-118204628D02*
X167907143Y-118157009D01*
X167907143Y-118157009D02*
X167811905Y-118109390D01*
X167811905Y-118109390D02*
X167764286Y-118061771D01*
X167764286Y-118061771D02*
X167716667Y-117966533D01*
X167716667Y-117966533D02*
X167716667Y-117871295D01*
X167716667Y-117871295D02*
X167764286Y-117776057D01*
X167764286Y-117776057D02*
X167811905Y-117728438D01*
X167811905Y-117728438D02*
X167907143Y-117680819D01*
X167907143Y-117680819D02*
X168145238Y-117680819D01*
X168145238Y-117680819D02*
X168288095Y-117728438D01*
X168621429Y-117680819D02*
X168859524Y-118680819D01*
X168859524Y-118680819D02*
X169050000Y-117966533D01*
X169050000Y-117966533D02*
X169240476Y-118680819D01*
X169240476Y-118680819D02*
X169478572Y-117680819D01*
X169907143Y-118680819D02*
X170097619Y-118680819D01*
X170097619Y-118680819D02*
X170192857Y-118633200D01*
X170192857Y-118633200D02*
X170240476Y-118585580D01*
X170240476Y-118585580D02*
X170335714Y-118442723D01*
X170335714Y-118442723D02*
X170383333Y-118252247D01*
X170383333Y-118252247D02*
X170383333Y-117871295D01*
X170383333Y-117871295D02*
X170335714Y-117776057D01*
X170335714Y-117776057D02*
X170288095Y-117728438D01*
X170288095Y-117728438D02*
X170192857Y-117680819D01*
X170192857Y-117680819D02*
X170002381Y-117680819D01*
X170002381Y-117680819D02*
X169907143Y-117728438D01*
X169907143Y-117728438D02*
X169859524Y-117776057D01*
X169859524Y-117776057D02*
X169811905Y-117871295D01*
X169811905Y-117871295D02*
X169811905Y-118109390D01*
X169811905Y-118109390D02*
X169859524Y-118204628D01*
X169859524Y-118204628D02*
X169907143Y-118252247D01*
X169907143Y-118252247D02*
X170002381Y-118299866D01*
X170002381Y-118299866D02*
X170192857Y-118299866D01*
X170192857Y-118299866D02*
X170288095Y-118252247D01*
X170288095Y-118252247D02*
X170335714Y-118204628D01*
X170335714Y-118204628D02*
X170383333Y-118109390D01*
D11*
%TO.C,SW4*%
X123965000Y-100065000D02*
X137935000Y-100065000D01*
X123965000Y-114035000D02*
X123965000Y-100065000D01*
X137935000Y-100065000D02*
X137935000Y-114035000D01*
X137935000Y-114035000D02*
X123965000Y-114035000D01*
%TO.C,SW5*%
X143015000Y-100065000D02*
X156985000Y-100065000D01*
X143015000Y-114035000D02*
X143015000Y-100065000D01*
X156985000Y-100065000D02*
X156985000Y-114035000D01*
X156985000Y-114035000D02*
X143015000Y-114035000D01*
%TO.C,SW8*%
X143015000Y-119115000D02*
X156985000Y-119115000D01*
X143015000Y-133085000D02*
X143015000Y-119115000D01*
X156985000Y-119115000D02*
X156985000Y-133085000D01*
X156985000Y-133085000D02*
X143015000Y-133085000D01*
%TO.C,SW3*%
X162065000Y-81015000D02*
X176035000Y-81015000D01*
X162065000Y-94985000D02*
X162065000Y-81015000D01*
X176035000Y-81015000D02*
X176035000Y-94985000D01*
X176035000Y-94985000D02*
X162065000Y-94985000D01*
%TO.C,SW2*%
X143015000Y-81015000D02*
X156985000Y-81015000D01*
X143015000Y-94985000D02*
X143015000Y-81015000D01*
X156985000Y-81015000D02*
X156985000Y-94985000D01*
X156985000Y-94985000D02*
X143015000Y-94985000D01*
%TO.C,SW6*%
X162065000Y-100065000D02*
X176035000Y-100065000D01*
X162065000Y-114035000D02*
X162065000Y-100065000D01*
X176035000Y-100065000D02*
X176035000Y-114035000D01*
X176035000Y-114035000D02*
X162065000Y-114035000D01*
%TO.C,SW10*%
X125093750Y-62750000D02*
X125693750Y-62750000D01*
X125393750Y-63050000D02*
X125093750Y-62750000D01*
X125693750Y-62750000D02*
X125393750Y-63050000D01*
X126793750Y-60950000D02*
X126793750Y-72750000D01*
X130893750Y-60950000D02*
X126793750Y-60950000D01*
X130893750Y-72750000D02*
X126793750Y-72750000D01*
X134893750Y-60950000D02*
X138993750Y-60950000D01*
X138993750Y-60950000D02*
X138993750Y-63350000D01*
X138993750Y-65550000D02*
X138993750Y-68150000D01*
X138993750Y-70350000D02*
X138993750Y-72750000D01*
X138993750Y-72750000D02*
X134893750Y-72750000D01*
X135893750Y-66850000D02*
G75*
G02*
X129893750Y-66850000I-3000000J0D01*
G01*
X129893750Y-66850000D02*
G75*
G02*
X135893750Y-66850000I3000000J0D01*
G01*
%TO.C,SW7*%
X123965000Y-119115000D02*
X137935000Y-119115000D01*
X123965000Y-133085000D02*
X123965000Y-119115000D01*
X137935000Y-119115000D02*
X137935000Y-133085000D01*
X137935000Y-133085000D02*
X123965000Y-133085000D01*
%TO.C,SW1*%
X123965000Y-81015000D02*
X137935000Y-81015000D01*
X123965000Y-94985000D02*
X123965000Y-81015000D01*
X137935000Y-81015000D02*
X137935000Y-94985000D01*
X137935000Y-94985000D02*
X123965000Y-94985000D01*
%TO.C,SW9*%
X162065000Y-119115000D02*
X176035000Y-119115000D01*
X162065000Y-133085000D02*
X162065000Y-119115000D01*
X176035000Y-119115000D02*
X176035000Y-133085000D01*
X176035000Y-133085000D02*
X162065000Y-133085000D01*
%TD*%
M02*
