%TF.GenerationSoftware,KiCad,Pcbnew,9.0.2*%
%TF.CreationDate,2025-06-03T16:25:14-04:00*%
%TF.ProjectId,HackpadAllan,4861636b-7061-4644-916c-6c616e2e6b69,rev?*%
%TF.SameCoordinates,Original*%
%TF.FileFunction,Legend,Bot*%
%TF.FilePolarity,Positive*%
%FSLAX46Y46*%
G04 Gerber Fmt 4.6, Leading zero omitted, Abs format (unit mm)*
G04 Created by KiCad (PCBNEW 9.0.2) date 2025-06-03 16:25:14*
%MOMM*%
%LPD*%
G01*
G04 APERTURE LIST*
%ADD10C,0.150000*%
%ADD11C,0.101600*%
%ADD12C,0.120000*%
%ADD13C,0.127000*%
%ADD14C,0.100000*%
%ADD15C,0.504000*%
G04 APERTURE END LIST*
D10*
X143256190Y-124091905D02*
X142256190Y-124091905D01*
X142256190Y-124091905D02*
X142256190Y-124330000D01*
X142256190Y-124330000D02*
X142303809Y-124472857D01*
X142303809Y-124472857D02*
X142399047Y-124568095D01*
X142399047Y-124568095D02*
X142494285Y-124615714D01*
X142494285Y-124615714D02*
X142684761Y-124663333D01*
X142684761Y-124663333D02*
X142827618Y-124663333D01*
X142827618Y-124663333D02*
X143018094Y-124615714D01*
X143018094Y-124615714D02*
X143113332Y-124568095D01*
X143113332Y-124568095D02*
X143208571Y-124472857D01*
X143208571Y-124472857D02*
X143256190Y-124330000D01*
X143256190Y-124330000D02*
X143256190Y-124091905D01*
X142256190Y-124996667D02*
X142256190Y-125663333D01*
X142256190Y-125663333D02*
X143256190Y-125234762D01*
X140644104Y-121521905D02*
X140644104Y-121998095D01*
X140929819Y-121426667D02*
X139929819Y-121760000D01*
X139929819Y-121760000D02*
X140929819Y-122093333D01*
X181356190Y-85991905D02*
X180356190Y-85991905D01*
X180356190Y-85991905D02*
X180356190Y-86230000D01*
X180356190Y-86230000D02*
X180403809Y-86372857D01*
X180403809Y-86372857D02*
X180499047Y-86468095D01*
X180499047Y-86468095D02*
X180594285Y-86515714D01*
X180594285Y-86515714D02*
X180784761Y-86563333D01*
X180784761Y-86563333D02*
X180927618Y-86563333D01*
X180927618Y-86563333D02*
X181118094Y-86515714D01*
X181118094Y-86515714D02*
X181213332Y-86468095D01*
X181213332Y-86468095D02*
X181308571Y-86372857D01*
X181308571Y-86372857D02*
X181356190Y-86230000D01*
X181356190Y-86230000D02*
X181356190Y-85991905D01*
X180356190Y-86896667D02*
X180356190Y-87515714D01*
X180356190Y-87515714D02*
X180737142Y-87182381D01*
X180737142Y-87182381D02*
X180737142Y-87325238D01*
X180737142Y-87325238D02*
X180784761Y-87420476D01*
X180784761Y-87420476D02*
X180832380Y-87468095D01*
X180832380Y-87468095D02*
X180927618Y-87515714D01*
X180927618Y-87515714D02*
X181165713Y-87515714D01*
X181165713Y-87515714D02*
X181260951Y-87468095D01*
X181260951Y-87468095D02*
X181308571Y-87420476D01*
X181308571Y-87420476D02*
X181356190Y-87325238D01*
X181356190Y-87325238D02*
X181356190Y-87039524D01*
X181356190Y-87039524D02*
X181308571Y-86944286D01*
X181308571Y-86944286D02*
X181260951Y-86896667D01*
X178744104Y-83421905D02*
X178744104Y-83898095D01*
X179029819Y-83326667D02*
X178029819Y-83660000D01*
X178029819Y-83660000D02*
X179029819Y-83993333D01*
X143256190Y-105041905D02*
X142256190Y-105041905D01*
X142256190Y-105041905D02*
X142256190Y-105280000D01*
X142256190Y-105280000D02*
X142303809Y-105422857D01*
X142303809Y-105422857D02*
X142399047Y-105518095D01*
X142399047Y-105518095D02*
X142494285Y-105565714D01*
X142494285Y-105565714D02*
X142684761Y-105613333D01*
X142684761Y-105613333D02*
X142827618Y-105613333D01*
X142827618Y-105613333D02*
X143018094Y-105565714D01*
X143018094Y-105565714D02*
X143113332Y-105518095D01*
X143113332Y-105518095D02*
X143208571Y-105422857D01*
X143208571Y-105422857D02*
X143256190Y-105280000D01*
X143256190Y-105280000D02*
X143256190Y-105041905D01*
X142589523Y-106470476D02*
X143256190Y-106470476D01*
X142208571Y-106232381D02*
X142922856Y-105994286D01*
X142922856Y-105994286D02*
X142922856Y-106613333D01*
X140644104Y-102471905D02*
X140644104Y-102948095D01*
X140929819Y-102376667D02*
X139929819Y-102710000D01*
X139929819Y-102710000D02*
X140929819Y-103043333D01*
X162306190Y-105041905D02*
X161306190Y-105041905D01*
X161306190Y-105041905D02*
X161306190Y-105280000D01*
X161306190Y-105280000D02*
X161353809Y-105422857D01*
X161353809Y-105422857D02*
X161449047Y-105518095D01*
X161449047Y-105518095D02*
X161544285Y-105565714D01*
X161544285Y-105565714D02*
X161734761Y-105613333D01*
X161734761Y-105613333D02*
X161877618Y-105613333D01*
X161877618Y-105613333D02*
X162068094Y-105565714D01*
X162068094Y-105565714D02*
X162163332Y-105518095D01*
X162163332Y-105518095D02*
X162258571Y-105422857D01*
X162258571Y-105422857D02*
X162306190Y-105280000D01*
X162306190Y-105280000D02*
X162306190Y-105041905D01*
X161306190Y-106518095D02*
X161306190Y-106041905D01*
X161306190Y-106041905D02*
X161782380Y-105994286D01*
X161782380Y-105994286D02*
X161734761Y-106041905D01*
X161734761Y-106041905D02*
X161687142Y-106137143D01*
X161687142Y-106137143D02*
X161687142Y-106375238D01*
X161687142Y-106375238D02*
X161734761Y-106470476D01*
X161734761Y-106470476D02*
X161782380Y-106518095D01*
X161782380Y-106518095D02*
X161877618Y-106565714D01*
X161877618Y-106565714D02*
X162115713Y-106565714D01*
X162115713Y-106565714D02*
X162210951Y-106518095D01*
X162210951Y-106518095D02*
X162258571Y-106470476D01*
X162258571Y-106470476D02*
X162306190Y-106375238D01*
X162306190Y-106375238D02*
X162306190Y-106137143D01*
X162306190Y-106137143D02*
X162258571Y-106041905D01*
X162258571Y-106041905D02*
X162210951Y-105994286D01*
X159694104Y-102471905D02*
X159694104Y-102948095D01*
X159979819Y-102376667D02*
X158979819Y-102710000D01*
X158979819Y-102710000D02*
X159979819Y-103043333D01*
X181356190Y-124091905D02*
X180356190Y-124091905D01*
X180356190Y-124091905D02*
X180356190Y-124330000D01*
X180356190Y-124330000D02*
X180403809Y-124472857D01*
X180403809Y-124472857D02*
X180499047Y-124568095D01*
X180499047Y-124568095D02*
X180594285Y-124615714D01*
X180594285Y-124615714D02*
X180784761Y-124663333D01*
X180784761Y-124663333D02*
X180927618Y-124663333D01*
X180927618Y-124663333D02*
X181118094Y-124615714D01*
X181118094Y-124615714D02*
X181213332Y-124568095D01*
X181213332Y-124568095D02*
X181308571Y-124472857D01*
X181308571Y-124472857D02*
X181356190Y-124330000D01*
X181356190Y-124330000D02*
X181356190Y-124091905D01*
X181356190Y-125139524D02*
X181356190Y-125330000D01*
X181356190Y-125330000D02*
X181308571Y-125425238D01*
X181308571Y-125425238D02*
X181260951Y-125472857D01*
X181260951Y-125472857D02*
X181118094Y-125568095D01*
X181118094Y-125568095D02*
X180927618Y-125615714D01*
X180927618Y-125615714D02*
X180546666Y-125615714D01*
X180546666Y-125615714D02*
X180451428Y-125568095D01*
X180451428Y-125568095D02*
X180403809Y-125520476D01*
X180403809Y-125520476D02*
X180356190Y-125425238D01*
X180356190Y-125425238D02*
X180356190Y-125234762D01*
X180356190Y-125234762D02*
X180403809Y-125139524D01*
X180403809Y-125139524D02*
X180451428Y-125091905D01*
X180451428Y-125091905D02*
X180546666Y-125044286D01*
X180546666Y-125044286D02*
X180784761Y-125044286D01*
X180784761Y-125044286D02*
X180879999Y-125091905D01*
X180879999Y-125091905D02*
X180927618Y-125139524D01*
X180927618Y-125139524D02*
X180975237Y-125234762D01*
X180975237Y-125234762D02*
X180975237Y-125425238D01*
X180975237Y-125425238D02*
X180927618Y-125520476D01*
X180927618Y-125520476D02*
X180879999Y-125568095D01*
X180879999Y-125568095D02*
X180784761Y-125615714D01*
X178744104Y-121521905D02*
X178744104Y-121998095D01*
X179029819Y-121426667D02*
X178029819Y-121760000D01*
X178029819Y-121760000D02*
X179029819Y-122093333D01*
X162306190Y-124091905D02*
X161306190Y-124091905D01*
X161306190Y-124091905D02*
X161306190Y-124330000D01*
X161306190Y-124330000D02*
X161353809Y-124472857D01*
X161353809Y-124472857D02*
X161449047Y-124568095D01*
X161449047Y-124568095D02*
X161544285Y-124615714D01*
X161544285Y-124615714D02*
X161734761Y-124663333D01*
X161734761Y-124663333D02*
X161877618Y-124663333D01*
X161877618Y-124663333D02*
X162068094Y-124615714D01*
X162068094Y-124615714D02*
X162163332Y-124568095D01*
X162163332Y-124568095D02*
X162258571Y-124472857D01*
X162258571Y-124472857D02*
X162306190Y-124330000D01*
X162306190Y-124330000D02*
X162306190Y-124091905D01*
X161734761Y-125234762D02*
X161687142Y-125139524D01*
X161687142Y-125139524D02*
X161639523Y-125091905D01*
X161639523Y-125091905D02*
X161544285Y-125044286D01*
X161544285Y-125044286D02*
X161496666Y-125044286D01*
X161496666Y-125044286D02*
X161401428Y-125091905D01*
X161401428Y-125091905D02*
X161353809Y-125139524D01*
X161353809Y-125139524D02*
X161306190Y-125234762D01*
X161306190Y-125234762D02*
X161306190Y-125425238D01*
X161306190Y-125425238D02*
X161353809Y-125520476D01*
X161353809Y-125520476D02*
X161401428Y-125568095D01*
X161401428Y-125568095D02*
X161496666Y-125615714D01*
X161496666Y-125615714D02*
X161544285Y-125615714D01*
X161544285Y-125615714D02*
X161639523Y-125568095D01*
X161639523Y-125568095D02*
X161687142Y-125520476D01*
X161687142Y-125520476D02*
X161734761Y-125425238D01*
X161734761Y-125425238D02*
X161734761Y-125234762D01*
X161734761Y-125234762D02*
X161782380Y-125139524D01*
X161782380Y-125139524D02*
X161829999Y-125091905D01*
X161829999Y-125091905D02*
X161925237Y-125044286D01*
X161925237Y-125044286D02*
X162115713Y-125044286D01*
X162115713Y-125044286D02*
X162210951Y-125091905D01*
X162210951Y-125091905D02*
X162258571Y-125139524D01*
X162258571Y-125139524D02*
X162306190Y-125234762D01*
X162306190Y-125234762D02*
X162306190Y-125425238D01*
X162306190Y-125425238D02*
X162258571Y-125520476D01*
X162258571Y-125520476D02*
X162210951Y-125568095D01*
X162210951Y-125568095D02*
X162115713Y-125615714D01*
X162115713Y-125615714D02*
X161925237Y-125615714D01*
X161925237Y-125615714D02*
X161829999Y-125568095D01*
X161829999Y-125568095D02*
X161782380Y-125520476D01*
X161782380Y-125520476D02*
X161734761Y-125425238D01*
X159694104Y-121521905D02*
X159694104Y-121998095D01*
X159979819Y-121426667D02*
X158979819Y-121760000D01*
X158979819Y-121760000D02*
X159979819Y-122093333D01*
X143256190Y-85991905D02*
X142256190Y-85991905D01*
X142256190Y-85991905D02*
X142256190Y-86230000D01*
X142256190Y-86230000D02*
X142303809Y-86372857D01*
X142303809Y-86372857D02*
X142399047Y-86468095D01*
X142399047Y-86468095D02*
X142494285Y-86515714D01*
X142494285Y-86515714D02*
X142684761Y-86563333D01*
X142684761Y-86563333D02*
X142827618Y-86563333D01*
X142827618Y-86563333D02*
X143018094Y-86515714D01*
X143018094Y-86515714D02*
X143113332Y-86468095D01*
X143113332Y-86468095D02*
X143208571Y-86372857D01*
X143208571Y-86372857D02*
X143256190Y-86230000D01*
X143256190Y-86230000D02*
X143256190Y-85991905D01*
X143256190Y-87515714D02*
X143256190Y-86944286D01*
X143256190Y-87230000D02*
X142256190Y-87230000D01*
X142256190Y-87230000D02*
X142399047Y-87134762D01*
X142399047Y-87134762D02*
X142494285Y-87039524D01*
X142494285Y-87039524D02*
X142541904Y-86944286D01*
X140644104Y-83421905D02*
X140644104Y-83898095D01*
X140929819Y-83326667D02*
X139929819Y-83660000D01*
X139929819Y-83660000D02*
X140929819Y-83993333D01*
D11*
X162573809Y-55141979D02*
X162573809Y-55656026D01*
X162573809Y-55656026D02*
X162543571Y-55716502D01*
X162543571Y-55716502D02*
X162513333Y-55746741D01*
X162513333Y-55746741D02*
X162452857Y-55776979D01*
X162452857Y-55776979D02*
X162331904Y-55776979D01*
X162331904Y-55776979D02*
X162271428Y-55746741D01*
X162271428Y-55746741D02*
X162241190Y-55716502D01*
X162241190Y-55716502D02*
X162210952Y-55656026D01*
X162210952Y-55656026D02*
X162210952Y-55141979D01*
X161575952Y-55776979D02*
X161938809Y-55776979D01*
X161757381Y-55776979D02*
X161757381Y-55141979D01*
X161757381Y-55141979D02*
X161817857Y-55232693D01*
X161817857Y-55232693D02*
X161878333Y-55293169D01*
X161878333Y-55293169D02*
X161938809Y-55323407D01*
D10*
X162306190Y-85991905D02*
X161306190Y-85991905D01*
X161306190Y-85991905D02*
X161306190Y-86230000D01*
X161306190Y-86230000D02*
X161353809Y-86372857D01*
X161353809Y-86372857D02*
X161449047Y-86468095D01*
X161449047Y-86468095D02*
X161544285Y-86515714D01*
X161544285Y-86515714D02*
X161734761Y-86563333D01*
X161734761Y-86563333D02*
X161877618Y-86563333D01*
X161877618Y-86563333D02*
X162068094Y-86515714D01*
X162068094Y-86515714D02*
X162163332Y-86468095D01*
X162163332Y-86468095D02*
X162258571Y-86372857D01*
X162258571Y-86372857D02*
X162306190Y-86230000D01*
X162306190Y-86230000D02*
X162306190Y-85991905D01*
X161401428Y-86944286D02*
X161353809Y-86991905D01*
X161353809Y-86991905D02*
X161306190Y-87087143D01*
X161306190Y-87087143D02*
X161306190Y-87325238D01*
X161306190Y-87325238D02*
X161353809Y-87420476D01*
X161353809Y-87420476D02*
X161401428Y-87468095D01*
X161401428Y-87468095D02*
X161496666Y-87515714D01*
X161496666Y-87515714D02*
X161591904Y-87515714D01*
X161591904Y-87515714D02*
X161734761Y-87468095D01*
X161734761Y-87468095D02*
X162306190Y-86896667D01*
X162306190Y-86896667D02*
X162306190Y-87515714D01*
X159694104Y-83421905D02*
X159694104Y-83898095D01*
X159979819Y-83326667D02*
X158979819Y-83660000D01*
X158979819Y-83660000D02*
X159979819Y-83993333D01*
X181356190Y-105041905D02*
X180356190Y-105041905D01*
X180356190Y-105041905D02*
X180356190Y-105280000D01*
X180356190Y-105280000D02*
X180403809Y-105422857D01*
X180403809Y-105422857D02*
X180499047Y-105518095D01*
X180499047Y-105518095D02*
X180594285Y-105565714D01*
X180594285Y-105565714D02*
X180784761Y-105613333D01*
X180784761Y-105613333D02*
X180927618Y-105613333D01*
X180927618Y-105613333D02*
X181118094Y-105565714D01*
X181118094Y-105565714D02*
X181213332Y-105518095D01*
X181213332Y-105518095D02*
X181308571Y-105422857D01*
X181308571Y-105422857D02*
X181356190Y-105280000D01*
X181356190Y-105280000D02*
X181356190Y-105041905D01*
X180356190Y-106470476D02*
X180356190Y-106280000D01*
X180356190Y-106280000D02*
X180403809Y-106184762D01*
X180403809Y-106184762D02*
X180451428Y-106137143D01*
X180451428Y-106137143D02*
X180594285Y-106041905D01*
X180594285Y-106041905D02*
X180784761Y-105994286D01*
X180784761Y-105994286D02*
X181165713Y-105994286D01*
X181165713Y-105994286D02*
X181260951Y-106041905D01*
X181260951Y-106041905D02*
X181308571Y-106089524D01*
X181308571Y-106089524D02*
X181356190Y-106184762D01*
X181356190Y-106184762D02*
X181356190Y-106375238D01*
X181356190Y-106375238D02*
X181308571Y-106470476D01*
X181308571Y-106470476D02*
X181260951Y-106518095D01*
X181260951Y-106518095D02*
X181165713Y-106565714D01*
X181165713Y-106565714D02*
X180927618Y-106565714D01*
X180927618Y-106565714D02*
X180832380Y-106518095D01*
X180832380Y-106518095D02*
X180784761Y-106470476D01*
X180784761Y-106470476D02*
X180737142Y-106375238D01*
X180737142Y-106375238D02*
X180737142Y-106184762D01*
X180737142Y-106184762D02*
X180784761Y-106089524D01*
X180784761Y-106089524D02*
X180832380Y-106041905D01*
X180832380Y-106041905D02*
X180927618Y-105994286D01*
X178744104Y-102471905D02*
X178744104Y-102948095D01*
X179029819Y-102376667D02*
X178029819Y-102710000D01*
X178029819Y-102710000D02*
X179029819Y-103043333D01*
D12*
%TO.C,D7*%
X140475000Y-124773629D02*
X140475000Y-124660000D01*
X141801371Y-126100000D02*
G75*
G02*
X139148629Y-126100000I-1326371J0D01*
G01*
X139148629Y-126100000D02*
G75*
G02*
X141801371Y-126100000I1326371J0D01*
G01*
%TO.C,D3*%
X178575000Y-86673629D02*
X178575000Y-86560000D01*
X179901371Y-88000000D02*
G75*
G02*
X177248629Y-88000000I-1326371J0D01*
G01*
X177248629Y-88000000D02*
G75*
G02*
X179901371Y-88000000I1326371J0D01*
G01*
%TO.C,D4*%
X140475000Y-105723629D02*
X140475000Y-105610000D01*
X141801371Y-107050000D02*
G75*
G02*
X139148629Y-107050000I-1326371J0D01*
G01*
X139148629Y-107050000D02*
G75*
G02*
X141801371Y-107050000I1326371J0D01*
G01*
%TO.C,D5*%
X159525000Y-105723629D02*
X159525000Y-105610000D01*
X160851371Y-107050000D02*
G75*
G02*
X158198629Y-107050000I-1326371J0D01*
G01*
X158198629Y-107050000D02*
G75*
G02*
X160851371Y-107050000I1326371J0D01*
G01*
%TO.C,D9*%
X178575000Y-124773629D02*
X178575000Y-124660000D01*
X179901371Y-126100000D02*
G75*
G02*
X177248629Y-126100000I-1326371J0D01*
G01*
X177248629Y-126100000D02*
G75*
G02*
X179901371Y-126100000I1326371J0D01*
G01*
%TO.C,D8*%
X159525000Y-124773629D02*
X159525000Y-124660000D01*
X160851371Y-126100000D02*
G75*
G02*
X158198629Y-126100000I-1326371J0D01*
G01*
X158198629Y-126100000D02*
G75*
G02*
X160851371Y-126100000I1326371J0D01*
G01*
%TO.C,D1*%
X140475000Y-86673629D02*
X140475000Y-86560000D01*
X141801371Y-88000000D02*
G75*
G02*
X139148629Y-88000000I-1326371J0D01*
G01*
X139148629Y-88000000D02*
G75*
G02*
X141801371Y-88000000I1326371J0D01*
G01*
D13*
%TO.C,U1*%
X144700000Y-75997500D02*
X144700000Y-58852500D01*
D14*
X146605000Y-56947500D02*
X160575000Y-56947500D01*
D13*
X146605000Y-56947500D02*
X160575000Y-56947500D01*
X149086000Y-56037500D02*
X149086000Y-56947500D01*
X157581272Y-55537500D02*
X149586000Y-55537500D01*
X158085000Y-56947500D02*
X158081272Y-56037228D01*
X160575000Y-77902500D02*
X146605000Y-77902500D01*
X162480000Y-75997500D02*
X162480000Y-58852500D01*
X144700000Y-58852500D02*
G75*
G02*
X146605000Y-56947500I1905000J0D01*
G01*
X146605000Y-77902500D02*
G75*
G02*
X144700000Y-75997500I0J1905000D01*
G01*
X149086000Y-56037500D02*
G75*
G02*
X149586000Y-55537500I500000J0D01*
G01*
X157581272Y-55537500D02*
G75*
G02*
X158081273Y-56037228I-18J-500019D01*
G01*
X160575000Y-56947500D02*
G75*
G02*
X162480000Y-58852500I-1J-1905001D01*
G01*
X162480000Y-75997500D02*
G75*
G02*
X160575000Y-77902500I-1905001J1D01*
G01*
D15*
X161649000Y-58068500D02*
G75*
G02*
X161145000Y-58068500I-252000J0D01*
G01*
X161145000Y-58068500D02*
G75*
G02*
X161649000Y-58068500I252000J0D01*
G01*
X162792000Y-57188500D02*
G75*
G02*
X162288000Y-57188500I-252000J0D01*
G01*
X162288000Y-57188500D02*
G75*
G02*
X162792000Y-57188500I252000J0D01*
G01*
D12*
%TO.C,D2*%
X159525000Y-86673629D02*
X159525000Y-86560000D01*
X160851371Y-88000000D02*
G75*
G02*
X158198629Y-88000000I-1326371J0D01*
G01*
X158198629Y-88000000D02*
G75*
G02*
X160851371Y-88000000I1326371J0D01*
G01*
%TO.C,D6*%
X178575000Y-105723629D02*
X178575000Y-105610000D01*
X179901371Y-107050000D02*
G75*
G02*
X177248629Y-107050000I-1326371J0D01*
G01*
X177248629Y-107050000D02*
G75*
G02*
X179901371Y-107050000I1326371J0D01*
G01*
%TD*%
M02*
