%TF.GenerationSoftware,KiCad,Pcbnew,9.0.2*%
%TF.CreationDate,2025-06-04T18:16:37-04:00*%
%TF.ProjectId,HackpadAllan,4861636b-7061-4644-916c-6c616e2e6b69,rev?*%
%TF.SameCoordinates,Original*%
%TF.FileFunction,Copper,L2,Bot*%
%TF.FilePolarity,Positive*%
%FSLAX46Y46*%
G04 Gerber Fmt 4.6, Leading zero omitted, Abs format (unit mm)*
G04 Created by KiCad (PCBNEW 9.0.2) date 2025-06-04 18:16:37*
%MOMM*%
%LPD*%
G01*
G04 APERTURE LIST*
G04 Aperture macros list*
%AMRoundRect*
0 Rectangle with rounded corners*
0 $1 Rounding radius*
0 $2 $3 $4 $5 $6 $7 $8 $9 X,Y pos of 4 corners*
0 Add a 4 corners polygon primitive as box body*
4,1,4,$2,$3,$4,$5,$6,$7,$8,$9,$2,$3,0*
0 Add four circle primitives for the rounded corners*
1,1,$1+$1,$2,$3*
1,1,$1+$1,$4,$5*
1,1,$1+$1,$6,$7*
1,1,$1+$1,$8,$9*
0 Add four rect primitives between the rounded corners*
20,1,$1+$1,$2,$3,$4,$5,0*
20,1,$1+$1,$4,$5,$6,$7,0*
20,1,$1+$1,$6,$7,$8,$9,0*
20,1,$1+$1,$8,$9,$2,$3,0*%
G04 Aperture macros list end*
%TA.AperFunction,ComponentPad*%
%ADD10RoundRect,0.250000X0.550000X-0.550000X0.550000X0.550000X-0.550000X0.550000X-0.550000X-0.550000X0*%
%TD*%
%TA.AperFunction,ComponentPad*%
%ADD11C,1.600000*%
%TD*%
%TA.AperFunction,ComponentPad*%
%ADD12C,2.200000*%
%TD*%
%TA.AperFunction,ComponentPad*%
%ADD13C,2.000000*%
%TD*%
%TA.AperFunction,ComponentPad*%
%ADD14R,3.200000X2.000000*%
%TD*%
%TA.AperFunction,ComponentPad*%
%ADD15R,2.000000X2.000000*%
%TD*%
%TA.AperFunction,SMDPad,CuDef*%
%ADD16RoundRect,0.152400X-1.063600X-0.609600X1.063600X-0.609600X1.063600X0.609600X-1.063600X0.609600X0*%
%TD*%
%TA.AperFunction,ComponentPad*%
%ADD17C,1.524000*%
%TD*%
%TA.AperFunction,SMDPad,CuDef*%
%ADD18RoundRect,0.152400X1.063600X0.609600X-1.063600X0.609600X-1.063600X-0.609600X1.063600X-0.609600X0*%
%TD*%
%TA.AperFunction,ViaPad*%
%ADD19C,0.600000*%
%TD*%
%TA.AperFunction,Conductor*%
%ADD20C,0.200000*%
%TD*%
G04 APERTURE END LIST*
D10*
%TO.P,D9,1,K*%
%TO.N,Row 2*%
X178575000Y-126100000D03*
D11*
%TO.P,D9,2,A*%
%TO.N,Net-(D9-A)*%
X178575000Y-118480000D03*
%TD*%
D10*
%TO.P,D8,1,K*%
%TO.N,Row 2*%
X159525000Y-126100000D03*
D11*
%TO.P,D8,2,A*%
%TO.N,Net-(D8-A)*%
X159525000Y-118480000D03*
%TD*%
D10*
%TO.P,D7,1,K*%
%TO.N,Row 2*%
X140475000Y-126100000D03*
D11*
%TO.P,D7,2,A*%
%TO.N,Net-(D7-A)*%
X140475000Y-118480000D03*
%TD*%
D10*
%TO.P,D6,1,K*%
%TO.N,Row 1*%
X178575000Y-107050000D03*
D11*
%TO.P,D6,2,A*%
%TO.N,Net-(D6-A)*%
X178575000Y-99430000D03*
%TD*%
D10*
%TO.P,D5,1,K*%
%TO.N,Row 1*%
X159525000Y-107050000D03*
D11*
%TO.P,D5,2,A*%
%TO.N,Net-(D5-A)*%
X159525000Y-99430000D03*
%TD*%
D10*
%TO.P,D4,1,K*%
%TO.N,Row 1*%
X140475000Y-107050000D03*
D11*
%TO.P,D4,2,A*%
%TO.N,Net-(D4-A)*%
X140475000Y-99430000D03*
%TD*%
D10*
%TO.P,D3,1,K*%
%TO.N,Row 0*%
X178575000Y-88000000D03*
D11*
%TO.P,D3,2,A*%
%TO.N,Net-(D3-A)*%
X178575000Y-80380000D03*
%TD*%
D10*
%TO.P,D2,1,K*%
%TO.N,Row 0*%
X159525000Y-88000000D03*
D11*
%TO.P,D2,2,A*%
%TO.N,Net-(D2-A)*%
X159525000Y-80380000D03*
%TD*%
D10*
%TO.P,D1,1,K*%
%TO.N,Row 0*%
X140475000Y-88000000D03*
D11*
%TO.P,D1,2,A*%
%TO.N,Net-(D1-A)*%
X140475000Y-80380000D03*
%TD*%
D12*
%TO.P,SW1,2,2*%
%TO.N,Net-(D1-A)*%
X127140000Y-85460000D03*
%TO.P,SW1,1,1*%
%TO.N,Column 0*%
X133490000Y-82920000D03*
%TD*%
%TO.P,SW2,2,2*%
%TO.N,Net-(D2-A)*%
X146190000Y-85460000D03*
%TO.P,SW2,1,1*%
%TO.N,Column 1*%
X152540000Y-82920000D03*
%TD*%
%TO.P,SW3,2,2*%
%TO.N,Net-(D3-A)*%
X165240000Y-85460000D03*
%TO.P,SW3,1,1*%
%TO.N,Column 2*%
X171590000Y-82920000D03*
%TD*%
%TO.P,SW4,2,2*%
%TO.N,Net-(D4-A)*%
X127140000Y-104510000D03*
%TO.P,SW4,1,1*%
%TO.N,Column 0*%
X133490000Y-101970000D03*
%TD*%
%TO.P,SW5,2,2*%
%TO.N,Net-(D5-A)*%
X146190000Y-104510000D03*
%TO.P,SW5,1,1*%
%TO.N,Column 1*%
X152540000Y-101970000D03*
%TD*%
%TO.P,SW6,2,2*%
%TO.N,Net-(D6-A)*%
X165240000Y-104510000D03*
%TO.P,SW6,1,1*%
%TO.N,Column 2*%
X171590000Y-101970000D03*
%TD*%
%TO.P,SW7,2,2*%
%TO.N,Net-(D7-A)*%
X127140000Y-123560000D03*
%TO.P,SW7,1,1*%
%TO.N,Column 0*%
X133490000Y-121020000D03*
%TD*%
%TO.P,SW8,2,2*%
%TO.N,Net-(D8-A)*%
X146190000Y-123560000D03*
%TO.P,SW8,1,1*%
%TO.N,Column 1*%
X152540000Y-121020000D03*
%TD*%
%TO.P,SW9,2,2*%
%TO.N,Net-(D9-A)*%
X165240000Y-123560000D03*
%TO.P,SW9,1,1*%
%TO.N,Column 2*%
X171590000Y-121020000D03*
%TD*%
D13*
%TO.P,SW10,S2,S2*%
%TO.N,Rot Switch*%
X139893750Y-64350000D03*
%TO.P,SW10,S1,S1*%
%TO.N,GND*%
X139893750Y-69350000D03*
D14*
%TO.P,SW10,MP*%
%TO.N,N/C*%
X132893750Y-72450000D03*
X132893750Y-61250000D03*
D13*
%TO.P,SW10,C,C*%
%TO.N,3.3V*%
X125393750Y-66850000D03*
%TO.P,SW10,B,B*%
%TO.N,Rot B*%
X125393750Y-69350000D03*
D15*
%TO.P,SW10,A,A*%
%TO.N,Rot A*%
X125393750Y-64350000D03*
%TD*%
D16*
%TO.P,U1,1,GPIO26/ADC0/A0*%
%TO.N,Column 0*%
X162045000Y-59868500D03*
D17*
X161210000Y-59868500D03*
D16*
%TO.P,U1,2,GPIO27/ADC1/A1*%
%TO.N,Column 1*%
X162045000Y-62408500D03*
D17*
X161210000Y-62408500D03*
D16*
%TO.P,U1,3,GPIO28/ADC2/A2*%
%TO.N,Column 2*%
X162045000Y-64948500D03*
D17*
X161210000Y-64948500D03*
D16*
%TO.P,U1,4,GPIO29/ADC3/A3*%
%TO.N,Row 2*%
X162045000Y-67488500D03*
D17*
X161210000Y-67488500D03*
D16*
%TO.P,U1,5,GPIO6/SDA*%
%TO.N,Row 1*%
X162045000Y-70028500D03*
D17*
X161210000Y-70028500D03*
D16*
%TO.P,U1,6,GPIO7/SCL*%
%TO.N,Row 0*%
X162045000Y-72568500D03*
D17*
X161210000Y-72568500D03*
D16*
%TO.P,U1,7,GPIO0/TX*%
%TO.N,unconnected-(U1-GPIO0{slash}TX-Pad7)*%
X162045000Y-75108500D03*
D17*
X161210000Y-75108500D03*
%TO.P,U1,8,GPIO1/RX*%
%TO.N,unconnected-(U1-GPIO1{slash}RX-Pad8)*%
X145970000Y-75108500D03*
D18*
X145135000Y-75108500D03*
D17*
%TO.P,U1,9,GPIO2/SCK*%
%TO.N,Rot Switch*%
X145970000Y-72568500D03*
D18*
X145135000Y-72568500D03*
D17*
%TO.P,U1,10,GPIO4/MISO*%
%TO.N,Rot B*%
X145970000Y-70028500D03*
D18*
X145135000Y-70028500D03*
D17*
%TO.P,U1,11,GPIO3/MOSI*%
%TO.N,Rot A*%
X145970000Y-67488500D03*
D18*
X145135000Y-67488500D03*
D17*
%TO.P,U1,12,3V3*%
%TO.N,3.3V*%
X145970000Y-64948500D03*
D18*
X145135000Y-64948500D03*
D17*
%TO.P,U1,13,GND*%
%TO.N,GND*%
X145970000Y-62408500D03*
D18*
X145135000Y-62408500D03*
D17*
%TO.P,U1,14,VBUS*%
%TO.N,+5V*%
X145970000Y-59868500D03*
D18*
X145135000Y-59868500D03*
%TD*%
D19*
%TO.N,Row 1*%
X165450000Y-82920000D03*
%TO.N,Row 2*%
X165710000Y-67500000D03*
%TO.N,Column 0*%
X155990000Y-78380000D03*
%TO.N,Column 1*%
X158940000Y-79190000D03*
%TO.N,Column 2*%
X171510000Y-65130000D03*
%TD*%
D20*
%TO.N,Row 0*%
X163562000Y-83963000D02*
X163562000Y-73842870D01*
X163562000Y-73842870D02*
X162287630Y-72568500D01*
X159525000Y-88000000D02*
X163562000Y-83963000D01*
X162287630Y-72568500D02*
X161210000Y-72568500D01*
%TO.N,Row 1*%
X165880000Y-100695000D02*
X165880000Y-88081314D01*
X163839000Y-86040314D02*
X163839000Y-84531000D01*
X160883870Y-70040000D02*
X161961500Y-70040000D01*
X165880000Y-88081314D02*
X163839000Y-86040314D01*
X163839000Y-84531000D02*
X165450000Y-82920000D01*
X159525000Y-107050000D02*
X165880000Y-100695000D01*
%TO.N,Row 2*%
X159525000Y-126100000D02*
X166641000Y-118984000D01*
X166641000Y-118984000D02*
X166641000Y-68431000D01*
X166641000Y-68431000D02*
X165710000Y-67500000D01*
%TO.N,Column 0*%
X138030000Y-78380000D02*
X155990000Y-78380000D01*
X133490000Y-82920000D02*
X138030000Y-78380000D01*
X133490000Y-82920000D02*
X133490000Y-121020000D01*
%TO.N,Column 1*%
X156270000Y-79190000D02*
X158940000Y-79190000D01*
X152540000Y-82920000D02*
X156270000Y-79190000D01*
X152540000Y-82920000D02*
X152540000Y-121020000D01*
%TO.N,Column 2*%
X171590000Y-82920000D02*
X171590000Y-65210000D01*
X171590000Y-82920000D02*
X171590000Y-121020000D01*
X171590000Y-65210000D02*
X171510000Y-65130000D01*
%TO.N,3.3V*%
X143235500Y-63049000D02*
X145135000Y-64948500D01*
X129194750Y-63049000D02*
X143235500Y-63049000D01*
X125393750Y-66850000D02*
X129194750Y-63049000D01*
%TO.N,Rot B*%
X145347500Y-70651000D02*
X145970000Y-70028500D01*
X126694750Y-70651000D02*
X145347500Y-70651000D01*
X125393750Y-69350000D02*
X126694750Y-70651000D01*
%TD*%
M02*
