%TF.GenerationSoftware,KiCad,Pcbnew,9.0.2*%
%TF.CreationDate,2025-06-04T18:15:31-04:00*%
%TF.ProjectId,HackpadAllan,4861636b-7061-4644-916c-6c616e2e6b69,rev?*%
%TF.SameCoordinates,Original*%
%TF.FileFunction,Plated,1,2,PTH,Mixed*%
%TF.FilePolarity,Positive*%
%FSLAX46Y46*%
G04 Gerber Fmt 4.6, Leading zero omitted, Abs format (unit mm)*
G04 Created by KiCad (PCBNEW 9.0.2) date 2025-06-04 18:15:31*
%MOMM*%
%LPD*%
G01*
G04 APERTURE LIST*
%TA.AperFunction,ViaDrill*%
%ADD10C,0.300000*%
%TD*%
%TA.AperFunction,ComponentDrill*%
%ADD11C,0.800000*%
%TD*%
%TA.AperFunction,ComponentDrill*%
%ADD12C,0.889000*%
%TD*%
%TA.AperFunction,ComponentDrill*%
%ADD13C,1.000000*%
%TD*%
%TA.AperFunction,ComponentDrill*%
%ADD14C,1.500000*%
%TD*%
G04 aperture for slot hole*
%TA.AperFunction,ComponentDrill*%
%ADD15C,1.500000*%
%TD*%
G04 APERTURE END LIST*
D10*
X155990000Y-78380000D03*
X158940000Y-79190000D03*
X165450000Y-82920000D03*
X165710000Y-67500000D03*
X171510000Y-65130000D03*
D11*
%TO.C,D1*%
X140475000Y-80380000D03*
X140475000Y-88000000D03*
%TO.C,D4*%
X140475000Y-99430000D03*
X140475000Y-107050000D03*
%TO.C,D7*%
X140475000Y-118480000D03*
X140475000Y-126100000D03*
%TO.C,D2*%
X159525000Y-80380000D03*
X159525000Y-88000000D03*
%TO.C,D5*%
X159525000Y-99430000D03*
X159525000Y-107050000D03*
%TO.C,D8*%
X159525000Y-118480000D03*
X159525000Y-126100000D03*
%TO.C,D3*%
X178575000Y-80380000D03*
X178575000Y-88000000D03*
%TO.C,D6*%
X178575000Y-99430000D03*
X178575000Y-107050000D03*
%TO.C,D9*%
X178575000Y-118480000D03*
X178575000Y-126100000D03*
D12*
%TO.C,U1*%
X145970000Y-59868500D03*
X145970000Y-62408500D03*
X145970000Y-64948500D03*
X145970000Y-67488500D03*
X145970000Y-70028500D03*
X145970000Y-72568500D03*
X145970000Y-75108500D03*
X161210000Y-59868500D03*
X161210000Y-62408500D03*
X161210000Y-64948500D03*
X161210000Y-67488500D03*
X161210000Y-70028500D03*
X161210000Y-72568500D03*
X161210000Y-75108500D03*
D13*
%TO.C,SW10*%
X125393750Y-64350000D03*
X125393750Y-66850000D03*
X125393750Y-69350000D03*
X139893750Y-64350000D03*
X139893750Y-69350000D03*
D14*
%TO.C,SW1*%
X127140000Y-85460000D03*
%TO.C,SW4*%
X127140000Y-104510000D03*
%TO.C,SW7*%
X127140000Y-123560000D03*
D15*
%TO.C,SW10*%
X133543750Y-61250000D02*
X132243750Y-61250000D01*
X133543750Y-72450000D02*
X132243750Y-72450000D01*
D14*
%TO.C,SW1*%
X133490000Y-82920000D03*
%TO.C,SW4*%
X133490000Y-101970000D03*
%TO.C,SW7*%
X133490000Y-121020000D03*
%TO.C,SW2*%
X146190000Y-85460000D03*
%TO.C,SW5*%
X146190000Y-104510000D03*
%TO.C,SW8*%
X146190000Y-123560000D03*
%TO.C,SW2*%
X152540000Y-82920000D03*
%TO.C,SW5*%
X152540000Y-101970000D03*
%TO.C,SW8*%
X152540000Y-121020000D03*
%TO.C,SW3*%
X165240000Y-85460000D03*
%TO.C,SW6*%
X165240000Y-104510000D03*
%TO.C,SW9*%
X165240000Y-123560000D03*
%TO.C,SW3*%
X171590000Y-82920000D03*
%TO.C,SW6*%
X171590000Y-101970000D03*
%TO.C,SW9*%
X171590000Y-121020000D03*
M02*
